<mxfile host="app.diagrams.net" modified="2023-01-10T18:36:41.209Z" agent="5.0 (Windows NT 10.0; Win64; x64) AppleWebKit/537.36 (KHTML, like Gecko) Chrome/108.0.0.0 Safari/537.36" version="20.8.3" etag="7fvF2upQebfpY41bhQD7" type="github">
  <diagram id="MRzTdedWwBT9ttPI9cMr" name="PÃ¡gina-1">
    <mxGraphModel dx="1194" dy="758" grid="1" gridSize="10" guides="1" tooltips="1" connect="1" arrows="1" fold="1" page="1" pageScale="1" pageWidth="827" pageHeight="1169" math="0" shadow="0">
      <root>
        <mxCell id="0" />
        <mxCell id="1" parent="0" />
        <mxCell id="WFjZFhkcWnAnSLOMWkFU-39" style="edgeStyle=orthogonalEdgeStyle;rounded=0;orthogonalLoop=1;jettySize=auto;html=1;exitX=0.5;exitY=1;exitDx=0;exitDy=0;entryX=0.5;entryY=0;entryDx=0;entryDy=0;" edge="1" parent="1" source="WFjZFhkcWnAnSLOMWkFU-2" target="WFjZFhkcWnAnSLOMWkFU-4">
          <mxGeometry relative="1" as="geometry" />
        </mxCell>
        <mxCell id="WFjZFhkcWnAnSLOMWkFU-40" style="edgeStyle=orthogonalEdgeStyle;rounded=0;orthogonalLoop=1;jettySize=auto;html=1;exitX=0.75;exitY=1;exitDx=0;exitDy=0;" edge="1" parent="1" source="WFjZFhkcWnAnSLOMWkFU-2" target="WFjZFhkcWnAnSLOMWkFU-6">
          <mxGeometry relative="1" as="geometry" />
        </mxCell>
        <mxCell id="WFjZFhkcWnAnSLOMWkFU-2" value="FOR i = 0" style="rounded=1;whiteSpace=wrap;html=1;" vertex="1" parent="1">
          <mxGeometry x="340" y="100" width="120" height="60" as="geometry" />
        </mxCell>
        <mxCell id="WFjZFhkcWnAnSLOMWkFU-21" style="edgeStyle=orthogonalEdgeStyle;rounded=0;orthogonalLoop=1;jettySize=auto;html=1;exitX=0;exitY=0.5;exitDx=0;exitDy=0;entryX=0;entryY=0.5;entryDx=0;entryDy=0;" edge="1" parent="1" source="WFjZFhkcWnAnSLOMWkFU-3" target="WFjZFhkcWnAnSLOMWkFU-2">
          <mxGeometry relative="1" as="geometry">
            <Array as="points">
              <mxPoint x="100" y="640" />
              <mxPoint x="100" y="130" />
            </Array>
          </mxGeometry>
        </mxCell>
        <mxCell id="WFjZFhkcWnAnSLOMWkFU-30" style="edgeStyle=orthogonalEdgeStyle;rounded=0;orthogonalLoop=1;jettySize=auto;html=1;exitX=0.5;exitY=1;exitDx=0;exitDy=0;entryX=0.592;entryY=-0.083;entryDx=0;entryDy=0;entryPerimeter=0;" edge="1" parent="1" source="WFjZFhkcWnAnSLOMWkFU-3" target="WFjZFhkcWnAnSLOMWkFU-24">
          <mxGeometry relative="1" as="geometry" />
        </mxCell>
        <mxCell id="WFjZFhkcWnAnSLOMWkFU-3" value="UNTIL I &amp;gt; LENGTH" style="rounded=1;whiteSpace=wrap;html=1;" vertex="1" parent="1">
          <mxGeometry x="270" y="610" width="120" height="60" as="geometry" />
        </mxCell>
        <mxCell id="WFjZFhkcWnAnSLOMWkFU-13" style="edgeStyle=orthogonalEdgeStyle;rounded=0;orthogonalLoop=1;jettySize=auto;html=1;exitX=0.5;exitY=1;exitDx=0;exitDy=0;" edge="1" parent="1" source="WFjZFhkcWnAnSLOMWkFU-4" target="WFjZFhkcWnAnSLOMWkFU-5">
          <mxGeometry relative="1" as="geometry" />
        </mxCell>
        <mxCell id="WFjZFhkcWnAnSLOMWkFU-4" value="IF NUMI&amp;gt;0" style="rounded=1;whiteSpace=wrap;html=1;" vertex="1" parent="1">
          <mxGeometry x="260" y="200" width="120" height="60" as="geometry" />
        </mxCell>
        <mxCell id="WFjZFhkcWnAnSLOMWkFU-14" style="edgeStyle=orthogonalEdgeStyle;rounded=0;orthogonalLoop=1;jettySize=auto;html=1;exitX=0.5;exitY=1;exitDx=0;exitDy=0;" edge="1" parent="1" source="WFjZFhkcWnAnSLOMWkFU-5" target="WFjZFhkcWnAnSLOMWkFU-3">
          <mxGeometry relative="1" as="geometry" />
        </mxCell>
        <mxCell id="WFjZFhkcWnAnSLOMWkFU-5" value="Numeros I ++" style="rounded=1;whiteSpace=wrap;html=1;" vertex="1" parent="1">
          <mxGeometry x="170" y="290" width="120" height="60" as="geometry" />
        </mxCell>
        <mxCell id="WFjZFhkcWnAnSLOMWkFU-15" style="edgeStyle=orthogonalEdgeStyle;rounded=0;orthogonalLoop=1;jettySize=auto;html=1;exitX=0.5;exitY=1;exitDx=0;exitDy=0;entryX=0.5;entryY=0;entryDx=0;entryDy=0;" edge="1" parent="1" source="WFjZFhkcWnAnSLOMWkFU-6" target="WFjZFhkcWnAnSLOMWkFU-7">
          <mxGeometry relative="1" as="geometry" />
        </mxCell>
        <mxCell id="WFjZFhkcWnAnSLOMWkFU-6" value="ELSE" style="rounded=1;whiteSpace=wrap;html=1;" vertex="1" parent="1">
          <mxGeometry x="420" y="200" width="120" height="60" as="geometry" />
        </mxCell>
        <mxCell id="WFjZFhkcWnAnSLOMWkFU-16" style="edgeStyle=orthogonalEdgeStyle;rounded=0;orthogonalLoop=1;jettySize=auto;html=1;exitX=0.5;exitY=1;exitDx=0;exitDy=0;entryX=0.5;entryY=0;entryDx=0;entryDy=0;" edge="1" parent="1" source="WFjZFhkcWnAnSLOMWkFU-7" target="WFjZFhkcWnAnSLOMWkFU-10">
          <mxGeometry relative="1" as="geometry" />
        </mxCell>
        <mxCell id="WFjZFhkcWnAnSLOMWkFU-7" value="FOR J = 0" style="rounded=1;whiteSpace=wrap;html=1;" vertex="1" parent="1">
          <mxGeometry x="420" y="280" width="120" height="60" as="geometry" />
        </mxCell>
        <mxCell id="WFjZFhkcWnAnSLOMWkFU-19" style="edgeStyle=orthogonalEdgeStyle;rounded=0;orthogonalLoop=1;jettySize=auto;html=1;exitX=1;exitY=0.5;exitDx=0;exitDy=0;entryX=1;entryY=0.5;entryDx=0;entryDy=0;" edge="1" parent="1" source="WFjZFhkcWnAnSLOMWkFU-8" target="WFjZFhkcWnAnSLOMWkFU-7">
          <mxGeometry relative="1" as="geometry">
            <Array as="points">
              <mxPoint x="790" y="570" />
              <mxPoint x="790" y="310" />
            </Array>
          </mxGeometry>
        </mxCell>
        <mxCell id="WFjZFhkcWnAnSLOMWkFU-20" style="edgeStyle=orthogonalEdgeStyle;rounded=0;orthogonalLoop=1;jettySize=auto;html=1;exitX=0.5;exitY=1;exitDx=0;exitDy=0;entryX=1;entryY=0.5;entryDx=0;entryDy=0;" edge="1" parent="1" source="WFjZFhkcWnAnSLOMWkFU-8" target="WFjZFhkcWnAnSLOMWkFU-3">
          <mxGeometry relative="1" as="geometry" />
        </mxCell>
        <mxCell id="WFjZFhkcWnAnSLOMWkFU-8" value="UNTIL J &amp;gt; LENGTH" style="rounded=1;whiteSpace=wrap;html=1;" vertex="1" parent="1">
          <mxGeometry x="420" y="540" width="120" height="60" as="geometry" />
        </mxCell>
        <mxCell id="WFjZFhkcWnAnSLOMWkFU-18" style="edgeStyle=orthogonalEdgeStyle;rounded=0;orthogonalLoop=1;jettySize=auto;html=1;exitX=0.5;exitY=1;exitDx=0;exitDy=0;" edge="1" parent="1" source="WFjZFhkcWnAnSLOMWkFU-9" target="WFjZFhkcWnAnSLOMWkFU-8">
          <mxGeometry relative="1" as="geometry" />
        </mxCell>
        <mxCell id="WFjZFhkcWnAnSLOMWkFU-9" value="Numeros J ++" style="rounded=1;whiteSpace=wrap;html=1;" vertex="1" parent="1">
          <mxGeometry x="610" y="470" width="120" height="60" as="geometry" />
        </mxCell>
        <mxCell id="WFjZFhkcWnAnSLOMWkFU-17" style="edgeStyle=orthogonalEdgeStyle;rounded=0;orthogonalLoop=1;jettySize=auto;html=1;exitX=0.5;exitY=1;exitDx=0;exitDy=0;entryX=0.5;entryY=0;entryDx=0;entryDy=0;" edge="1" parent="1" source="WFjZFhkcWnAnSLOMWkFU-10" target="WFjZFhkcWnAnSLOMWkFU-9">
          <mxGeometry relative="1" as="geometry" />
        </mxCell>
        <mxCell id="WFjZFhkcWnAnSLOMWkFU-10" value="IF NUMJ&amp;gt;0" style="rounded=1;whiteSpace=wrap;html=1;" vertex="1" parent="1">
          <mxGeometry x="520" y="370" width="120" height="60" as="geometry" />
        </mxCell>
        <mxCell id="WFjZFhkcWnAnSLOMWkFU-32" style="edgeStyle=orthogonalEdgeStyle;rounded=0;orthogonalLoop=1;jettySize=auto;html=1;exitX=0.25;exitY=1;exitDx=0;exitDy=0;" edge="1" parent="1" source="WFjZFhkcWnAnSLOMWkFU-24" target="WFjZFhkcWnAnSLOMWkFU-25">
          <mxGeometry relative="1" as="geometry" />
        </mxCell>
        <mxCell id="WFjZFhkcWnAnSLOMWkFU-33" style="edgeStyle=orthogonalEdgeStyle;rounded=0;orthogonalLoop=1;jettySize=auto;html=1;exitX=0.75;exitY=1;exitDx=0;exitDy=0;" edge="1" parent="1" source="WFjZFhkcWnAnSLOMWkFU-24" target="WFjZFhkcWnAnSLOMWkFU-26">
          <mxGeometry relative="1" as="geometry" />
        </mxCell>
        <mxCell id="WFjZFhkcWnAnSLOMWkFU-24" value="IF SUM &amp;gt;100" style="rounded=1;whiteSpace=wrap;html=1;" vertex="1" parent="1">
          <mxGeometry x="260" y="730" width="120" height="60" as="geometry" />
        </mxCell>
        <mxCell id="WFjZFhkcWnAnSLOMWkFU-38" style="edgeStyle=orthogonalEdgeStyle;rounded=0;orthogonalLoop=1;jettySize=auto;html=1;exitX=0.5;exitY=1;exitDx=0;exitDy=0;entryX=0;entryY=0.25;entryDx=0;entryDy=0;" edge="1" parent="1" source="WFjZFhkcWnAnSLOMWkFU-25" target="WFjZFhkcWnAnSLOMWkFU-29">
          <mxGeometry relative="1" as="geometry" />
        </mxCell>
        <mxCell id="WFjZFhkcWnAnSLOMWkFU-25" value="Return 100" style="rounded=1;whiteSpace=wrap;html=1;" vertex="1" parent="1">
          <mxGeometry x="120" y="850" width="120" height="60" as="geometry" />
        </mxCell>
        <mxCell id="WFjZFhkcWnAnSLOMWkFU-34" style="edgeStyle=orthogonalEdgeStyle;rounded=0;orthogonalLoop=1;jettySize=auto;html=1;exitX=0.25;exitY=1;exitDx=0;exitDy=0;entryX=0.5;entryY=0;entryDx=0;entryDy=0;" edge="1" parent="1" source="WFjZFhkcWnAnSLOMWkFU-26" target="WFjZFhkcWnAnSLOMWkFU-27">
          <mxGeometry relative="1" as="geometry" />
        </mxCell>
        <mxCell id="WFjZFhkcWnAnSLOMWkFU-35" style="edgeStyle=orthogonalEdgeStyle;rounded=0;orthogonalLoop=1;jettySize=auto;html=1;exitX=0.75;exitY=1;exitDx=0;exitDy=0;" edge="1" parent="1" source="WFjZFhkcWnAnSLOMWkFU-26" target="WFjZFhkcWnAnSLOMWkFU-28">
          <mxGeometry relative="1" as="geometry" />
        </mxCell>
        <mxCell id="WFjZFhkcWnAnSLOMWkFU-26" value="ELSEIF SUM&amp;nbsp; &amp;lt; -100" style="rounded=1;whiteSpace=wrap;html=1;" vertex="1" parent="1">
          <mxGeometry x="340" y="840" width="120" height="60" as="geometry" />
        </mxCell>
        <mxCell id="WFjZFhkcWnAnSLOMWkFU-37" style="edgeStyle=orthogonalEdgeStyle;rounded=0;orthogonalLoop=1;jettySize=auto;html=1;exitX=0.5;exitY=1;exitDx=0;exitDy=0;entryX=0.5;entryY=0;entryDx=0;entryDy=0;" edge="1" parent="1" source="WFjZFhkcWnAnSLOMWkFU-27" target="WFjZFhkcWnAnSLOMWkFU-29">
          <mxGeometry relative="1" as="geometry" />
        </mxCell>
        <mxCell id="WFjZFhkcWnAnSLOMWkFU-27" value="Return -100" style="rounded=1;whiteSpace=wrap;html=1;" vertex="1" parent="1">
          <mxGeometry x="280" y="950" width="120" height="60" as="geometry" />
        </mxCell>
        <mxCell id="WFjZFhkcWnAnSLOMWkFU-36" style="edgeStyle=orthogonalEdgeStyle;rounded=0;orthogonalLoop=1;jettySize=auto;html=1;exitX=0.5;exitY=1;exitDx=0;exitDy=0;entryX=1;entryY=0.65;entryDx=0;entryDy=0;entryPerimeter=0;" edge="1" parent="1" source="WFjZFhkcWnAnSLOMWkFU-28" target="WFjZFhkcWnAnSLOMWkFU-29">
          <mxGeometry relative="1" as="geometry" />
        </mxCell>
        <mxCell id="WFjZFhkcWnAnSLOMWkFU-28" value="Return SUM" style="rounded=1;whiteSpace=wrap;html=1;" vertex="1" parent="1">
          <mxGeometry x="490" y="990" width="120" height="60" as="geometry" />
        </mxCell>
        <mxCell id="WFjZFhkcWnAnSLOMWkFU-29" value="FIN" style="rounded=1;whiteSpace=wrap;html=1;" vertex="1" parent="1">
          <mxGeometry x="140" y="1060" width="120" height="60" as="geometry" />
        </mxCell>
      </root>
    </mxGraphModel>
  </diagram>
</mxfile>
